<svg xmlns="http://www.w3.org/2000/svg" viewBox="0 0 107.97 22.36"><title>fl-logo</title><path d="M0,22.11l.2-.18,9.08-8.84,6.09-5.92L22.51.22a.67.67,0,0,0,.2-.22h8.37c0,.1-.11.14-.17.2L27.23,3.78l-7.57,7.37-8.25,8L8.53,22l-.12.11a.23.23,0,0,1-.19.08H.08A.08.08,0,0,1,0,22.11Z" style="fill:#f17137"/><path d="M54.11,12.95c.31,0,2.28,0,2.49,0a1.2,1.2,0,0,1-.07.4L55.09,19.5c-.19.8-.37,1.6-.56,2.4-.06.24,0,.25-.29.25H51.35c-.12,0-.14,0-.17-.13L51,21.24c-.2-.93-.4-1.86-.58-2.79A22.71,22.71,0,0,1,50,15.78a.6.6,0,0,0,0-.08s0,0-.06,0a.05.05,0,0,0,0,0,.88.88,0,0,0,0,.16c-.06.75-.18,1.49-.31,2.23-.2,1.18-.42,2.35-.64,3.52a2.08,2.08,0,0,1-.12.52.47.47,0,0,1-.22,0H45.72c-.13,0-.14,0-.17-.13-.08-.3-.16-.59-.23-.89L43.26,13.2c0-.08,0-.16-.05-.23s.1,0,.15,0h2.42c.15,0,.15,0,.18.14l.21,1c.25,1.17.5,2.33.74,3.5.08.4.13.8.19,1.2,0,.16,0,.32.06.48a.13.13,0,0,0,0,.07.12.12,0,0,0,.07,0l0,0a.45.45,0,0,0,0-.1c0-.37.1-.73.14-1.1.07-.6.18-1.2.3-1.79l.63-3.19s0-.09,0-.13a.08.08,0,0,1,.08-.06h3a.1.1,0,0,1,.11.1l.16.8c.23,1.17.46,2.34.69,3.51.12.63.24,1.26.3,1.9a.2.2,0,0,0,0,.08l0,0s.06,0,.07,0a.34.34,0,0,0,0-.08,25.93,25.93,0,0,1,.47-2.81q.31-1.6.63-3.19Z" style="fill:#393c3f"/><path d="M92.62,14.14l.53-.47a5.51,5.51,0,0,1,.67-.51,2.73,2.73,0,0,1,2.08-.39,1.61,1.61,0,0,1,1.2.92,2.78,2.78,0,0,1,.25.91,8.76,8.76,0,0,1,.05.95q0,3.15,0,6.3c0,.31,0,.3-.29.3H94.9c-.08,0-.11,0-.11-.12s0-.14,0-.22q0-2.65,0-5.29a3.78,3.78,0,0,0,0-.65,1.62,1.62,0,0,0-.1-.34.68.68,0,0,0-.91-.4,1.35,1.35,0,0,0-.4.22,5.34,5.34,0,0,0-.64.58.21.21,0,0,0-.07.17c0,.07,0,.14,0,.22q0,2.77,0,5.54c0,.32,0,.29-.29.29H90.1a.08.08,0,0,1-.08-.09c0-.06,0-.13,0-.19q0-4.33,0-8.66c0-.3,0-.27.28-.27h2.23c.07,0,.09,0,.09.1q0,.39,0,.79C92.62,13.91,92.62,14,92.62,14.14Z" style="fill:#393c3f"/><path d="M21.36,16.68q0-2.55,0-5.1c0-.34,0-.31.3-.31H27.9c.32,0,.3,0,.3.29q0,.84,0,1.68c0,.05,0,.11,0,.16s0,.11-.11.12H24.15a.08.08,0,0,0-.08.09s0,.05,0,.08q0,1,0,1.93s0,.05,0,.08a.08.08,0,0,0,.08.09h3.64c.33,0,.29,0,.29.29q0,.83,0,1.66s0,.09,0,.14,0,.16-.15.16H24.38c-.35,0-.31,0-.31.3q0,1.78,0,3.56c0,.28,0,.27-.26.27H21.47c-.08,0-.1,0-.11-.12s0-.14,0-.22Q21.36,19.24,21.36,16.68Z" style="fill:#393c3f"/><path d="M78.93,16.7q0-2.55,0-5.1c0-.08,0-.16,0-.24a.08.08,0,0,1,.08-.09h2.55a.07.07,0,0,1,.07.07c0,.08,0,.16,0,.24q0,4,0,7.93c0,.38-.05.33.33.33H85c.25,0,.24,0,.24.23q0,.92,0,1.85s0,.09,0,.14,0,.09-.11.1h-6c-.28,0-.27,0-.27-.26Q78.93,19.29,78.93,16.7Z" style="fill:#393c3f"/><path d="M69.94,15.43c-.15,0-.29-.07-.43-.09a2.24,2.24,0,0,0-2.12.78.63.63,0,0,0-.16.44c0,1.75,0,3.49,0,5.24,0,.08,0,.16,0,.24a.1.1,0,0,1-.1.1H64.71a.07.07,0,0,1-.07-.07c0-.06,0-.13,0-.19q0-4.35,0-8.69s0-.09,0-.14,0-.12.13-.12H67.1c.11,0,.13,0,.13.13,0,.34,0,.69,0,1,0,.07,0,.14,0,.24s.11-.12.14-.17A2.78,2.78,0,0,1,68.81,13a1.9,1.9,0,0,1,.88-.13l.19,0A.09.09,0,0,1,70,13s0,.07,0,.11q0,1.1,0,2.2C70,15.31,69.95,15.36,69.94,15.43Z" style="fill:#393c3f"/><path d="M40,14.34l.11-.18a2.75,2.75,0,0,1,1.82-1.3,1.76,1.76,0,0,1,.57,0c.17,0,.18,0,.18.2s0,.38,0,.57c0,.52,0,1,0,1.55a.55.55,0,0,1,0,.27l-.4-.08a2.25,2.25,0,0,0-2,.64l-.09.1a.55.55,0,0,0-.19.54q0,2.61,0,5.21c0,.34,0,.31-.3.31h-2.2a.1.1,0,0,1-.1-.11c0-.05,0-.11,0-.16q0-4.34,0-8.69s0-.09,0-.14,0-.12.13-.12H39.8c.12,0,.13,0,.13.12,0,.33,0,.65,0,1q0,.15,0,.3Z" style="fill:#393c3f"/><path d="M86.32,17.52q0-2.17,0-4.34c0-.26,0-.25.25-.25h2.2c.14,0,.14,0,.15.13s0,.14,0,.22q0,4.26,0,8.52s0,.09,0,.14c0,.21,0,.21-.21.21H86.43c-.06,0-.1,0-.11-.1s0-.16,0-.24Q86.32,19.66,86.32,17.52Z" style="fill:#393c3f"/><path d="M87.63,12.16H86.46c-.12,0-.14,0-.14-.14q0-.81,0-1.63c0-.11,0-.13.13-.13h2.36c.09,0,.11,0,.11.11,0,.41,0,.81,0,1.22,0,.14,0,.29,0,.43s0,.13-.13.13H87.63Z" style="fill:#393c3f"/><path d="M77.75,16.19q0,2.8,0,5.59c0,.07,0,.14,0,.22s0,.15-.16.15H75.34c-.16,0-.17,0-.18-.17s0-.4,0-.6a.48.48,0,0,0,0-.08.06.06,0,0,0,0,0h0l-.13.14a3.91,3.91,0,0,1-.71.58,2.55,2.55,0,0,1-1.61.36,2.27,2.27,0,0,1-1.86-1.23,4.93,4.93,0,0,1-.53-1.53,12.15,12.15,0,0,1-.17-2.49,8.72,8.72,0,0,1,.23-1.94,4.24,4.24,0,0,1,.53-1.3,2.3,2.3,0,0,1,1.44-1.07,2.47,2.47,0,0,1,2.2.45c.2.16.38.33.57.5,0,0,0,.06.09,0s0,0,0-.07,0-.14,0-.22q0-1.44,0-2.88c0-.07,0-.14,0-.22s0-.12.13-.12h2.28c.17,0,.17,0,.18.19s0,.13,0,.19Zm-2.59-.29c0-.06,0-.13,0-.19a.22.22,0,0,0,0-.15,2.39,2.39,0,0,0-.6-.55,1,1,0,0,0-1.44.38,2.13,2.13,0,0,0-.18.42,3.84,3.84,0,0,0-.15.88,12.79,12.79,0,0,0,0,1.68,3.91,3.91,0,0,0,.17.9,1.7,1.7,0,0,0,.29.58.92.92,0,0,0,.76.36,1.18,1.18,0,0,0,.64-.2,3.24,3.24,0,0,0,.43-.37.4.4,0,0,0,.14-.33c0-.58,0-1.16,0-1.74S75.16,16.45,75.16,15.89Z" style="fill:#393c3f"/><path d="M61.06,16.32a3.57,3.57,0,0,0-.06-1,.83.83,0,0,0-.85-.69,1,1,0,0,0-1.05.65,2.06,2.06,0,0,0-.14.44c0,.12-.05.14-.17.1l-.62-.2-1.34-.43-.13,0a.08.08,0,0,1-.06-.11c0-.07,0-.14.07-.21a3.12,3.12,0,0,1,2.18-2,4.93,4.93,0,0,1,1.91-.13,4.09,4.09,0,0,1,.85.18,2.55,2.55,0,0,1,1.56,1.41,4.36,4.36,0,0,1,.33,1.17,7.8,7.8,0,0,1,.07,1.16c0,1.4,0,2.81,0,4.21,0,.33,0,.65,0,1,0,0,0,.09,0,.14s0,.14-.13.15H61.29c-.09,0-.11,0-.12-.11q0-.42,0-.84c0-.06,0-.13,0-.18S61,21,61,21a7.05,7.05,0,0,1-.75.71,3.19,3.19,0,0,1-.82.47,2.17,2.17,0,0,1-2.55-.84,3.11,3.11,0,0,1-.4-1,3.72,3.72,0,0,1,0-1.88,2.83,2.83,0,0,1,1.31-1.7,4.12,4.12,0,0,1,1.74-.55A9.57,9.57,0,0,1,61.06,16.32Zm0,2.43c0-.19,0-.38,0-.57a.09.09,0,0,0-.09-.11,4.31,4.31,0,0,0-1,0,1.17,1.17,0,0,0-1.08,1.35.82.82,0,0,0,1,.73,1.6,1.6,0,0,0,.5-.2A3.93,3.93,0,0,0,61,19.5a.28.28,0,0,0,.1-.24c0-.17,0-.34,0-.51Z" style="fill:#393c3f"/><path d="M28.57,17.65A6.77,6.77,0,0,1,29,15.22a4,4,0,0,1,1.09-1.63,3.52,3.52,0,0,1,1.85-.83,4.6,4.6,0,0,1,1.64,0,3.44,3.44,0,0,1,2.21,1.49,4.59,4.59,0,0,1,.66,1.54,7.16,7.16,0,0,1-.08,3.67A4.26,4.26,0,0,1,35.58,21a3.44,3.44,0,0,1-2.11,1.27,4.52,4.52,0,0,1-2,0,3.45,3.45,0,0,1-2.17-1.6,5,5,0,0,1-.65-1.74A6.44,6.44,0,0,1,28.57,17.65ZM34,17a5.76,5.76,0,0,0-.1-1,2.2,2.2,0,0,0-.23-.66,1.08,1.08,0,0,0-.52-.5,1.14,1.14,0,0,0-1.48.46,2.34,2.34,0,0,0-.12.24,3,3,0,0,0-.21.84,9.46,9.46,0,0,0,0,2.19,4,4,0,0,0,.13.64,2.25,2.25,0,0,0,.23.52,1.15,1.15,0,0,0,2-.05,2.59,2.59,0,0,0,.13-.3,3.24,3.24,0,0,0,.16-.71,7.73,7.73,0,0,0,0-1.16C34,17.36,34,17.18,34,17Z" style="fill:#393c3f"/><path d="M105.93,17.44a7.37,7.37,0,0,0-.16-1.53,4.71,4.71,0,0,0-.65-1.63A3.27,3.27,0,0,0,103.6,13a4,4,0,0,0-2.39-.21A3.39,3.39,0,0,0,99,14.29a4.66,4.66,0,0,0-.64,1.43,7.19,7.19,0,0,0,0,3.57A4.6,4.6,0,0,0,99.1,21a3.29,3.29,0,0,0,2.3,1.34,5,5,0,0,0,1.62,0,3,3,0,0,0,1.71-.93,4.57,4.57,0,0,0,.79-1.25c0-.08,0-.11-.06-.14l-1.37-.5-.64-.23a.08.08,0,0,0-.11,0,3.54,3.54,0,0,1-.24.46,1.16,1.16,0,0,1-.93.58,1.12,1.12,0,0,1-1.17-.62,2.94,2.94,0,0,1-.22-1.27.08.08,0,0,1,.09-.08h5a.08.08,0,0,0,.08-.09Q105.93,17.84,105.93,17.44Zm-2.66-1h-2.38a.08.08,0,0,1-.08-.08,2.27,2.27,0,0,1,.29-1.14,1.1,1.1,0,0,1,.94-.55,1.39,1.39,0,0,1,.4,0,1,1,0,0,1,.62.45,1.73,1.73,0,0,1,.19.42,3.45,3.45,0,0,1,.14.77C103.37,16.41,103.35,16.43,103.26,16.44Z" style="fill:#393c3f"/><path d="M106.84,12.54a1.12,1.12,0,0,0-1.13,1.11,1.1,1.1,0,0,0,1.13,1.1A1.08,1.08,0,0,0,108,13.65,1.1,1.1,0,0,0,106.84,12.54Zm.3,1.91a.83.83,0,0,1-.92-.22.86.86,0,0,1-.16-.91.8.8,0,0,1,.68-.54.83.83,0,0,1,.92.73.93.93,0,0,1,0,.11A.84.84,0,0,1,107.14,14.45Z" style="fill:#3b3d40"/><path d="M107.33,14.06a.63.63,0,0,0-.19-.38l.1-.09a.26.26,0,0,0,0-.34.33.33,0,0,0-.28-.14h-.46c-.12,0-.13,0-.13.15,0,.28,0,.56,0,.84,0,0,0,0,0,0s0,.11.12.11.15,0,.15-.13,0-.14,0-.22,0-.09.1-.09.18,0,.22.15,0,.14.06.21a.1.1,0,0,0,0,.06.24.24,0,0,0,.21,0C107.38,14.17,107.34,14.11,107.33,14.06Zm-.36-.51a.33.33,0,0,1-.23,0,.05.05,0,0,1,0-.05v0h0s0,0,0,0,0-.09,0-.12a.08.08,0,0,1,.09-.08l.18,0a.11.11,0,0,1,.07.1A.13.13,0,0,1,107,13.55Z" style="fill:#3d4042"/></svg>