<svg xmlns="http://www.w3.org/2000/svg" viewBox="0 0 38.48 15.43"><title>ssl-lock</title><path d="M1.38,7.24c0-.84,0-1.65,0-2.46A4.53,4.53,0,0,1,5.87,0a4.62,4.62,0,0,1,4.5,4.81c0,.81,0,1.62,0,2.5,1.24-.12,1.41.54,1.38,1.5-.06,1.82,0,3.65,0,5.48,0,.79-.25,1.14-1.06,1.14q-4.84,0-9.69,0c-.78,0-1-.34-1-1.07,0-1.89,0-3.78,0-5.67C0,7.47,0,7.47,1.38,7.24Zm7,0A27.53,27.53,0,0,0,8,3.77,2.23,2.23,0,0,0,5.78,2.12,2.32,2.32,0,0,0,3.59,4a26.66,26.66,0,0,0,0,3.28Z" style="fill:#999"/><path d="M30.3,5.79a16.43,16.43,0,0,0-2.22-.45c-.32,0-.66.3-1,.47.19.3.32.71.59.89.57.37,1.22.62,1.82.93A2.58,2.58,0,0,1,31,10.45a2.52,2.52,0,0,1-2.11,2.27,15.59,15.59,0,0,1-3.18,0,1,1,0,0,1-1.09-1.35,7.07,7.07,0,0,0,0-1c.75.2,1.4.41,2.05.53a3.39,3.39,0,0,0,1.25,0c.23,0,.57-.32.59-.52a1,1,0,0,0-.36-.79c-.6-.38-1.28-.64-1.9-1a2.74,2.74,0,0,1-1.59-2.78,2.62,2.62,0,0,1,2.32-2.31,5.8,5.8,0,0,1,4,.58Z" style="fill:#999"/><path d="M17.05,10.37c.75.2,1.4.39,2.07.53a2.36,2.36,0,0,0,1.06.05c.3-.08.71-.33.77-.59s-.22-.66-.47-.82a16.54,16.54,0,0,1-1.8-1,4.63,4.63,0,0,1-1.46-1.83A2.42,2.42,0,0,1,19,3.64a6.05,6.05,0,0,1,4.45.43L22.76,5.8a17.1,17.1,0,0,0-2.23-.46c-.31,0-.65.3-1,.47.19.3.32.7.59.88.6.39,1.28.65,1.91,1a2.51,2.51,0,0,1,1.4,2.59,2.38,2.38,0,0,1-1.87,2.37,17.26,17.26,0,0,1-3.94,0c-.21,0-.51-.45-.56-.73A7.87,7.87,0,0,1,17.05,10.37Z" style="fill:#999"/><path d="M32.56,3.61h2.29v7.18h3.63v2c-1.86,0-3.7,0-5.53,0-.13,0-.37-.35-.37-.54C32.55,9.38,32.56,6.56,32.56,3.61Z" style="fill:#999"/></svg>